<svg width="33" height="53" fill="none" xmlns="http://www.w3.org/2000/svg"><path d="M17.282 51.95l13.313-5.04a2.647 2.647 0 001.536-3.408L19.462 10.031a4.276 4.276 0 00-5.313-2.55l-.65-1.716.38-.144a.61.61 0 00.355-.786l-1.152-3.043A2.647 2.647 0 009.674.256L2.067 3.135A2.647 2.647 0 00.531 6.543l1.151 3.043a.61.61 0 00.787.354l.38-.144.65 1.717a4.275 4.275 0 00-2.294 5.428l12.67 33.472a2.647 2.647 0 003.407 1.536zM1.672 6.11a1.425 1.425 0 01.827-1.835l7.607-2.88a1.425 1.425 0 011.835.828l.936 2.472-10.27 3.887-.935-2.472zm10.686.086l.648 1.712-8.368 3.167-.648-1.711 8.368-3.168zM2.346 16.51a3.054 3.054 0 011.773-3.932L14.39 8.69a3.054 3.054 0 013.932 1.773l3.22 8.508-8.405 3.181a.61.61 0 00-.354.787l.984 2.599a.61.61 0 001.14-.432l-.767-2.028 7.835-2.966 5.335 14.096-7.835 2.966-2.768-7.314a.61.61 0 00-1.14.432l2.983 7.884a.61.61 0 00.787.355l8.405-3.182 3.25 8.585a1.425 1.425 0 01-.828 1.835L16.85 50.81a1.425 1.425 0 01-1.835-.828L2.346 16.51z" fill="#000"/></svg>