<svg width="100" height="15" fill="none" xmlns="http://www.w3.org/2000/svg"><path d="M.776 11a.58.58 0 01-.406-.14.56.56 0 01-.14-.392v-6.58c0-.168.046-.299.14-.392a.549.549 0 01.406-.154c.158 0 .284.051.378.154a.503.503 0 01.154.392v.476a3.125 3.125 0 011.106-.812 3.558 3.558 0 011.442-.294c.662 0 1.255.14 1.778.42.522.27.933.672 1.232 1.204.308.532.462 1.18.462 1.946v3.64c0 .15-.052.275-.154.378a.514.514 0 01-.378.154.53.53 0 01-.392-.154.514.514 0 01-.154-.378v-3.64c0-.868-.243-1.507-.728-1.918-.476-.42-1.069-.63-1.778-.63-.458 0-.873.089-1.246.266a2.21 2.21 0 00-.868.728 1.792 1.792 0 00-.322 1.05v4.144c0 .159-.052.29-.154.392a.51.51 0 01-.378.14zm0-3.122a.549.549 0 01-.406-.154.56.56 0 01-.14-.392V.612C.23.444.276.313.37.22A.549.549 0 01.776.066c.158 0 .284.051.378.154a.503.503 0 01.154.392v6.72c0 .159-.052.29-.154.392a.486.486 0 01-.378.154zm12.4 3.192c-.756 0-1.428-.163-2.016-.49a3.69 3.69 0 01-1.372-1.386c-.326-.588-.49-1.26-.49-2.016 0-.765.154-1.437.462-2.016a3.583 3.583 0 011.302-1.386c.551-.336 1.186-.504 1.904-.504.71 0 1.326.163 1.848.49.532.317.943.76 1.232 1.33.29.57.434 1.218.434 1.946a.49.49 0 01-.14.364.523.523 0 01-.364.126H10.32c.056.504.21.952.462 1.344.252.383.584.686.994.91.411.215.878.322 1.4.322.336 0 .672-.056 1.008-.168.346-.121.621-.27.826-.448a.538.538 0 01.35-.126.46.46 0 01.336.098c.122.112.182.233.182.364a.385.385 0 01-.154.336c-.308.261-.7.48-1.176.658a4.117 4.117 0 01-1.372.252zm-.21-6.832c-.718 0-1.311.224-1.778.672-.466.439-.746 1.013-.84 1.722h5.124c-.074-.71-.336-1.283-.784-1.722-.438-.448-1.012-.672-1.722-.672zm8.438 6.832c-.718 0-1.362-.168-1.931-.504a3.832 3.832 0 01-1.358-1.4c-.327-.588-.49-1.25-.49-1.988 0-.747.168-1.414.503-2.002a3.764 3.764 0 011.4-1.386c.588-.345 1.251-.518 1.989-.518.737 0 1.395.173 1.974.518a3.66 3.66 0 011.386 1.386c.345.588.522 1.255.532 2.002v3.29a.53.53 0 01-.154.392.56.56 0 01-.392.14.56.56 0 01-.392-.14.53.53 0 01-.154-.392v-.854a3.403 3.403 0 01-1.233 1.064 3.595 3.595 0 01-1.68.392zm.113-.98c.54 0 1.021-.126 1.442-.378a2.69 2.69 0 001.008-1.036c.252-.448.378-.947.378-1.498 0-.56-.127-1.06-.378-1.498a2.688 2.688 0 00-1.008-1.036 2.676 2.676 0 00-1.442-.392c-.532 0-1.013.13-1.442.392-.43.252-.77.597-1.023 1.036a2.953 2.953 0 00-.378 1.498c0 .55.127 1.05.378 1.498.253.439.593.784 1.023 1.036.429.252.91.378 1.442.378zm7.64.91c-.56 0-1.022-.224-1.386-.672-.364-.457-.546-1.04-.546-1.75V.598a.51.51 0 01.14-.378.531.531 0 01.392-.154c.159 0 .285.051.378.154.103.093.154.22.154.378v7.98c0 .401.08.728.238.98.168.252.378.378.63.378h.35c.14 0 .252.051.336.154.084.093.126.22.126.378a.49.49 0 01-.182.392.677.677 0 01-.448.14h-.182zm5.295 0a2.55 2.55 0 01-1.33-.35 2.548 2.548 0 01-.91-.952 2.876 2.876 0 01-.336-1.4V4.56h-.91a.504.504 0 01-.35-.126.458.458 0 01-.14-.336.43.43 0 01.14-.336.475.475 0 01.35-.14h.91v-2.17a.56.56 0 01.14-.392.531.531 0 01.392-.154c.159 0 .29.051.392.154a.53.53 0 01.154.392v2.17h1.582c.14 0 .257.047.35.14a.43.43 0 01.14.336c0 .13-.046.243-.14.336a.504.504 0 01-.35.126h-1.582v3.738c0 .476.14.868.42 1.176.28.299.64.448 1.078.448h.378c.15 0 .271.051.364.154a.56.56 0 01.14.392c0 .159-.056.29-.168.392a.634.634 0 01-.42.14h-.294zm3.183 0a.58.58 0 01-.406-.14.56.56 0 01-.14-.392v-6.58a.53.53 0 01.14-.392.549.549 0 01.406-.154c.159 0 .285.051.378.154a.503.503 0 01.154.392v.476a3.125 3.125 0 011.106-.812 3.558 3.558 0 011.442-.294c.663 0 1.255.14 1.778.42.523.27.933.672 1.232 1.204.308.532.462 1.18.462 1.946v3.64c0 .15-.051.275-.154.378a.514.514 0 01-.378.154.53.53 0 01-.392-.154.514.514 0 01-.154-.378v-3.64c0-.868-.243-1.507-.728-1.918-.476-.42-1.069-.63-1.778-.63-.457 0-.873.089-1.246.266-.364.177-.653.42-.868.728a1.792 1.792 0 00-.322 1.05v4.144a.53.53 0 01-.154.392.51.51 0 01-.378.14zm0-3.122a.549.549 0 01-.406-.154.56.56 0 01-.14-.392V.612a.53.53 0 01.14-.392.549.549 0 01.406-.154c.159 0 .285.051.378.154a.503.503 0 01.154.392v6.72a.53.53 0 01-.154.392.485.485 0 01-.378.154zm10.245 6.454a.688.688 0 01-.252-.056c-.318-.14-.406-.364-.266-.672l1.4-3.066-.014-.014-3.122-6.468a.486.486 0 01-.028-.392.514.514 0 01.28-.28c.308-.14.532-.06.672.238l2.73 5.754 2.604-5.74c.14-.299.364-.383.672-.252.317.13.406.35.266.658l-4.536 9.968c-.094.215-.229.322-.406.322zM58.867 11c-.354 0-.532-.177-.532-.532V3.874c0-.355.178-.532.532-.532.355 0 .532.177.532.532v.602a3.04 3.04 0 011.036-.882 2.79 2.79 0 011.358-.336c.43 0 .76.06.994.182.233.121.322.299.266.532-.046.215-.158.327-.336.336-.168 0-.368-.01-.602-.028-.523-.047-.99.01-1.4.168-.401.15-.723.383-.966.7-.233.317-.35.695-.35 1.134v4.186c0 .355-.177.532-.532.532zm8.694.07c-.719 0-1.363-.168-1.932-.504a3.831 3.831 0 01-1.358-1.4c-.327-.588-.49-1.25-.49-1.988 0-.747.168-1.414.504-2.002a3.764 3.764 0 011.4-1.386c.588-.345 1.25-.518 1.988-.518.737 0 1.395.173 1.974.518a3.66 3.66 0 011.386 1.386c.345.588.522 1.255.532 2.002v3.29c0 .159-.052.29-.154.392a.56.56 0 01-.392.14.56.56 0 01-.392-.14.53.53 0 01-.154-.392v-.854a3.404 3.404 0 01-1.232 1.064 3.595 3.595 0 01-1.68.392zm.112-.98c.541 0 1.022-.126 1.442-.378.43-.252.765-.597 1.008-1.036.252-.448.378-.947.378-1.498 0-.56-.126-1.06-.378-1.498a2.688 2.688 0 00-1.008-1.036c-.42-.261-.9-.392-1.442-.392-.532 0-1.013.13-1.442.392a2.79 2.79 0 00-1.022 1.036 2.953 2.953 0 00-.378 1.498c0 .55.126 1.05.378 1.498a2.79 2.79 0 001.022 1.036c.43.252.91.378 1.442.378zm8.984.91a2.55 2.55 0 01-1.33-.35 2.548 2.548 0 01-.91-.952 2.876 2.876 0 01-.336-1.4V4.56h-.91a.504.504 0 01-.35-.126.458.458 0 01-.14-.336.43.43 0 01.14-.336.475.475 0 01.35-.14h.91v-2.17a.56.56 0 01.14-.392.53.53 0 01.392-.154c.159 0 .29.051.392.154a.531.531 0 01.154.392v2.17h1.582c.14 0 .257.047.35.14a.43.43 0 01.14.336c0 .13-.046.243-.14.336a.504.504 0 01-.35.126H75.16v3.738c0 .476.14.868.42 1.176.28.299.64.448 1.078.448h.378c.15 0 .271.051.364.154a.56.56 0 01.14.392c0 .159-.056.29-.168.392a.634.634 0 01-.42.14h-.294zm3.407 0a.58.58 0 01-.406-.14.58.58 0 01-.14-.406V3.888a.53.53 0 01.14-.392.549.549 0 01.406-.154c.159 0 .285.051.378.154a.503.503 0 01.154.392v6.566a.55.55 0 01-.154.406.511.511 0 01-.378.14zm-.014-9.114a.727.727 0 01-.532-.224.743.743 0 01-.224-.546c0-.233.075-.415.224-.546a.8.8 0 01.546-.21c.196 0 .369.07.518.21.159.13.238.313.238.546a.743.743 0 01-.224.546.743.743 0 01-.546.224zm6.777 9.184c-.747 0-1.414-.168-2.002-.504A3.66 3.66 0 0183.44 9.18c-.336-.588-.504-1.255-.504-2.002 0-.756.168-1.428.504-2.016a3.66 3.66 0 011.386-1.386c.588-.336 1.255-.504 2.002-.504.747 0 1.41.168 1.988.504a3.66 3.66 0 011.386 1.386c.336.588.509 1.26.518 2.016 0 .747-.173 1.414-.518 2.002a3.66 3.66 0 01-1.386 1.386c-.579.336-1.241.504-1.988.504zm0-.98c.541 0 1.027-.126 1.456-.378.43-.252.765-.597 1.008-1.036.243-.439.364-.938.364-1.498s-.121-1.06-.364-1.498a2.663 2.663 0 00-1.008-1.05 2.822 2.822 0 00-1.456-.378c-.541 0-1.027.126-1.456.378-.43.252-.77.602-1.022 1.05a3.042 3.042 0 00-.364 1.498c0 .56.121 1.06.364 1.498a2.79 2.79 0 001.022 1.036c.43.252.915.378 1.456.378zm6.535.91a.58.58 0 01-.406-.14.56.56 0 01-.14-.392v-6.58c0-.168.046-.299.14-.392a.549.549 0 01.406-.154c.158 0 .284.051.378.154a.503.503 0 01.154.392v.476A3.125 3.125 0 0195 3.552a3.558 3.558 0 011.442-.294c.662 0 1.255.14 1.778.42.522.27.933.672 1.232 1.204.308.532.462 1.18.462 1.946v3.64c0 .15-.052.275-.154.378a.514.514 0 01-.378.154.53.53 0 01-.392-.154.514.514 0 01-.154-.378v-3.64c0-.868-.243-1.507-.728-1.918-.476-.42-1.069-.63-1.778-.63-.458 0-.873.089-1.246.266a2.21 2.21 0 00-.868.728 1.792 1.792 0 00-.322 1.05v4.144c0 .159-.052.29-.154.392a.511.511 0 01-.378.14z" fill="#020202"/></svg>