<svg width="48" height="39" fill="none" xmlns="http://www.w3.org/2000/svg"><path d="M45.595 16.477l-.059-.327-.131.306a10.86 10.86 0 01-1.242 2.166.811.811 0 01-1.134.17l-.06.08.06-.08a.81.81 0 01-.17-1.134 9.23 9.23 0 001.665-7.1c-.412-2.273-1.741-4.075-3.96-5.394-2.215-1.317-5.317-2.153-9.282-2.506-7.33-.653-15.282.573-18.358 1.13C5.702 5.096.89 12.034 2.197 19.255c1.308 7.222 8.246 12.033 15.468 10.725 3.42-.619 5.897-2.221 8.5-3.906l.007-.004c3.008-1.946 6.105-3.95 10.94-4.825.282-.05.563-.116.838-.192l-.027-.097.027.097a.811.811 0 01.437 1.562c-.323.09-.655.166-.986.226-4.517.818-7.487 2.74-10.345 4.589l-.003.002c-2.765 1.789-5.36 3.467-9.1 4.144-5.545 1.004-10.942-1.209-14.266-5.304l-.175.087c1.673 6.752 8.349 11.144 15.287 9.888 3.421-.62 5.898-2.222 8.501-3.906l.007-.004c3.008-1.947 6.105-3.95 10.94-4.825 4.99-.903 8.314-5.698 7.41-10.687l-.063-.348zM31.426 1.042c3.91.349 7.097 1.177 9.476 2.458 2.94 1.582 4.69 3.86 5.218 6.77l1.134 6.266c1.063 5.87-2.848 11.51-8.718 12.572-4.516.818-7.486 2.74-10.344 4.589l-.003.002c-2.765 1.789-5.361 3.467-9.1 4.144-8.101 1.467-15.885-3.93-17.352-12.032L.602 19.544C-.864 11.444 4.533 3.66 12.634 2.192c3.146-.57 11.27-1.82 18.792-1.15z" fill="#020202" stroke="#F5FAFF" stroke-width=".2"/></svg>