<svg width="33" height="53" viewBox="0 0 33 53" fill="none" xmlns="http://www.w3.org/2000/svg">
<path d="M17.2824 51.9493L30.5948 46.9104C31.25 46.6616 31.7797 46.163 32.0678 45.5241C32.3559 44.8852 32.3787 44.1581 32.1314 43.5023L19.4623 10.031C19.0727 9.00559 18.3039 8.16913 17.315 7.69465C16.326 7.22016 15.1925 7.14395 14.1489 7.48178L13.4992 5.76533L13.8795 5.62136C14.0309 5.56409 14.1532 5.44905 14.2197 5.30155C14.2862 5.15406 14.2914 4.98619 14.2341 4.83488L13.0824 1.79203C12.8335 1.13685 12.335 0.607128 11.696 0.319075C11.0571 0.0310224 10.33 0.00816018 9.67429 0.255504L2.06717 3.13485C1.41199 3.3837 0.882269 3.88228 0.594216 4.52119C0.306163 5.16011 0.2833 5.8872 0.530644 6.54295L1.68238 9.5858C1.73966 9.73711 1.85469 9.85948 2.00219 9.92597C2.14968 9.99247 2.31755 9.99765 2.46887 9.94038L2.84922 9.79641L3.49891 11.5129C2.49318 11.9507 1.69422 12.7584 1.26728 13.7688C0.840351 14.7792 0.818114 15.9151 1.20517 16.9414L13.8743 50.4127C14.1231 51.0679 14.6217 51.5976 15.2606 51.8857C15.8996 52.1737 16.6266 52.1966 17.2824 51.9493ZM1.67171 6.11105C1.53849 5.75795 1.55079 5.36643 1.7059 5.02239C1.86101 4.67835 2.14626 4.40989 2.49907 4.27592L10.1062 1.39657C10.4593 1.26335 10.8508 1.27565 11.1948 1.43076C11.5389 1.58587 11.8073 1.87112 11.9413 2.22393L12.8771 4.69625L2.6075 8.58336L1.67171 6.11105ZM12.3581 6.19723L13.006 7.90883L4.63814 11.0761L3.99029 9.36451L12.3581 6.19723ZM2.34624 16.5095C2.06083 15.7529 2.0872 14.9139 2.41957 14.1767C2.75194 13.4395 3.36317 12.8642 4.11916 12.5771L14.3888 8.68998C15.1454 8.40457 15.9844 8.43094 16.7216 8.76331C17.4588 9.09568 18.0341 9.70691 18.3212 10.4629L21.5416 18.9711L13.1365 22.1525C12.9852 22.2097 12.8628 22.3248 12.7963 22.4723C12.7298 22.6198 12.7246 22.7876 12.7819 22.939L13.7656 25.5379C13.8229 25.6892 13.9379 25.8116 14.0854 25.8781C14.2329 25.9446 14.4008 25.9498 14.5521 25.8925C14.7034 25.8352 14.8258 25.7202 14.8923 25.5727C14.9588 25.4252 14.964 25.2573 14.9067 25.106L14.1389 23.0776L21.9735 20.1121L27.3089 34.2081L19.4743 37.1736L16.7063 29.8605C16.649 29.7092 16.534 29.5868 16.3865 29.5203C16.239 29.4538 16.0711 29.4486 15.9198 29.5059C15.7685 29.5632 15.6461 29.6782 15.5796 29.8257C15.5131 29.9732 15.5079 30.1411 15.5652 30.2924L18.5492 38.176C18.6065 38.3273 18.7215 38.4497 18.869 38.5162C19.0165 38.5827 19.1844 38.5879 19.3357 38.5306L27.7408 35.3492L30.9903 43.9342C31.1235 44.2873 31.1112 44.6788 30.9561 45.0229C30.801 45.3669 30.5158 45.6354 30.1629 45.7693L16.8505 50.8082C16.4974 50.9414 16.1059 50.9291 15.7618 50.774C15.4178 50.6189 15.1493 50.3336 15.0154 49.9808L2.34624 16.5095Z" fill="black"/>
</svg>
