<svg width="35" height="52" viewBox="0 0 35 52" fill="none" xmlns="http://www.w3.org/2000/svg">
<path d="M18.5472 1.6636L18.5472 1.6636C17.3001 1.7552 16.1554 2.24908 15.2556 3.05809L15.0612 3.23291L14.8953 3.03084C13.3203 1.11281 10.5819 0.430905 8.2394 1.54102C5.89697 2.65107 4.69102 5.20215 5.17823 7.63567L5.22956 7.89207L4.97111 7.93184C3.77519 8.11586 2.66818 8.68913 1.80755 9.59639L1.80753 9.59641C0.788602 10.6704 0.249306 12.0754 0.288113 13.5547L0.288113 13.5547C0.32687 15.0342 0.939089 16.4086 2.01334 17.4271L18.5472 1.6636ZM18.5472 1.6636C20.0236 1.55502 21.4526 2.02729 22.5729 2.99408C23.6935 3.96099 24.3695 5.30513 24.4776 6.78121C24.5112 7.24103 24.4014 8.16513 23.1134 11.4306C22.6478 12.6112 22.1531 13.78 21.7815 14.6383L21.6706 14.8945L21.9374 14.9766C24.4832 15.7599 26.7043 17.5659 27.9318 20.156C29.225 22.8847 31.4602 29.9684 32.8012 36.6352C33.5493 40.3543 33.9251 43.4374 33.9229 45.8032L34.1729 45.8034L33.9229 45.8032C33.9215 47.4017 33.7426 48.6517 33.3935 49.5798C33.0462 50.5031 32.536 51.0954 31.8722 51.41C31.2083 51.7246 30.4269 51.7444 29.4923 51.4285C28.5529 51.111 27.4721 50.4579 26.2341 49.4468L26.0759 49.6404L26.2341 49.4468C24.4016 47.9504 22.2533 45.7073 19.8486 42.7733C15.5378 37.5138 11.4706 31.2982 10.1776 28.5695C8.95018 25.9794 8.95878 23.1167 9.96463 20.6503L10.07 20.3918L9.80156 20.3154C8.90212 20.0595 7.68445 19.7025 6.47548 19.3151L6.47547 19.3151M18.5472 1.6636L6.47547 19.3151M6.47547 19.3151C3.13265 18.2443 2.34778 17.744 2.01337 17.4271L6.47547 19.3151ZM1.96283 13.5108C1.98979 14.5419 2.41736 15.5018 3.16577 16.2114L3.17131 16.2166L3.17715 16.2215C3.31901 16.3405 3.60339 16.484 3.98002 16.6452C4.36843 16.8115 4.88681 17.0096 5.52411 17.2329C6.79927 17.6798 8.56021 18.2315 10.7296 18.8371L10.9006 18.8849L11.002 18.7391C11.3432 18.2488 11.7311 17.7874 12.1624 17.362L12.3317 17.195L12.1733 17.0175C9.24575 13.738 7.04363 11.2105 6.02966 9.65648L5.95562 9.54299L5.82011 9.54309C4.76286 9.54387 3.76129 9.97135 3.02292 10.7494L3.0229 10.7494C2.31253 11.4981 1.93577 12.4796 1.96283 13.5108ZM1.96283 13.5108L2.21274 13.5043M1.96283 13.5108L2.21274 13.5043M2.21274 13.5043C2.18743 12.5394 2.5395 11.6221 3.20426 10.9215M2.21274 13.5043C2.23797 14.469 2.63752 15.366 3.33779 16.03L3.20426 10.9215M3.20426 10.9215C3.89547 10.1931 4.83156 9.79382 5.82029 9.79309L3.20426 10.9215ZM21.1443 41.7114C21.2938 41.8939 21.4409 42.0715 21.5866 42.2463L21.7106 42.3951L21.8857 42.3121L25.4661 40.6154C25.8842 40.4173 26.3836 40.5955 26.5817 41.0136C26.7798 41.4316 26.6015 41.9311 26.1835 42.1292L23.1408 43.5711L22.8397 43.7138L23.0608 43.963C25.4 46.5987 27.1848 48.17 28.4858 49.0408C29.1359 49.476 29.6734 49.7417 30.1052 49.8753C30.5287 50.0063 30.8897 50.0218 31.1548 49.8962C31.4521 49.7553 31.6909 49.4077 31.8672 48.9005C32.0477 48.3814 32.1806 47.6452 32.2286 46.6466C32.3248 44.6483 32.083 41.5589 31.159 36.9655C29.8466 30.441 27.6809 23.538 26.418 20.8732C24.4936 16.8127 19.6255 15.0745 15.5651 16.9987C11.5048 18.9228 9.76718 23.7913 11.6915 27.852C12.9542 30.5168 16.9256 36.5641 21.1443 41.7114ZM21.1443 41.7114L21.3377 41.5529M21.1443 41.7114C21.1443 41.7114 21.1443 41.7114 21.1443 41.7114L21.3377 41.5529M21.3377 41.5529C21.4867 41.7348 21.6333 41.9118 21.7786 42.0862L31.0477 49.6703C31.8655 49.2827 32.7577 46.1812 30.914 37.0148C29.6034 30.4996 27.4426 23.619 26.1921 20.9803C24.3268 17.0445 19.6077 15.3596 15.6722 17.2246C11.7367 19.0896 10.0522 23.809 11.9174 27.7449C13.1678 30.3837 17.125 36.4131 21.3377 41.5529ZM15.9492 15.0422L16.15 14.9751L16.1169 14.766C15.8415 13.0264 15.4973 10.8959 15.1446 9.03697C14.9684 8.10765 14.7895 7.24371 14.6156 6.52917C14.4432 5.82076 14.2713 5.24016 14.1053 4.88974C13.1929 2.96449 10.8835 2.14181 8.95679 3.05484C7.0303 3.96779 6.20487 6.2761 7.11722 8.20132C7.27843 8.54151 7.60334 9.0204 8.02585 9.57996C8.45199 10.1443 8.98917 10.8059 9.58633 11.5159C10.7808 12.9361 12.2221 14.5584 13.5093 15.9988L13.6498 16.1561L13.8285 16.044C14.1535 15.8402 14.493 15.653 14.8476 15.4849C15.2098 15.3132 15.5777 15.1664 15.9492 15.0422ZM22.807 6.90904L22.8069 6.90149L22.8064 6.89395C22.7316 5.87464 22.2592 4.93601 21.4785 4.26255C20.6974 3.58861 19.6992 3.2587 18.6699 3.3344C17.6002 3.41306 16.6351 3.91773 15.965 4.73565L15.879 4.84059L15.9201 4.96987C16.5053 6.80955 17.1023 10.294 17.7521 14.3834L17.7893 14.6175L18.025 14.5928C18.6192 14.5307 19.2136 14.5234 19.8012 14.5693L19.9782 14.5831L20.0496 14.4205C20.9545 12.3577 21.6427 10.6453 22.1042 9.37404C22.3348 8.73871 22.5098 8.21115 22.627 7.80386C22.7406 7.40864 22.8094 7.09622 22.807 6.90904Z" fill="black" stroke="#F5FAFF" stroke-width="0.5"/>
</svg>
