<svg width="100" height="15" viewBox="0 0 100 15" fill="none" xmlns="http://www.w3.org/2000/svg">
<path d="M0.775727 11C0.607727 11 0.472393 10.9533 0.369727 10.86C0.276393 10.7573 0.229727 10.6267 0.229727 10.468V3.888C0.229727 3.72 0.276393 3.58933 0.369727 3.496C0.472393 3.39333 0.607727 3.342 0.775727 3.342C0.934393 3.342 1.06039 3.39333 1.15373 3.496C1.25639 3.58933 1.30773 3.72 1.30773 3.888V4.364C1.60639 4.01867 1.97506 3.748 2.41373 3.552C2.86173 3.356 3.34239 3.258 3.85573 3.258C4.51839 3.258 5.11106 3.398 5.63373 3.678C6.15639 3.94867 6.56706 4.35 6.86573 4.882C7.17373 5.414 7.32773 6.06267 7.32773 6.828V10.468C7.32773 10.6173 7.27639 10.7433 7.17373 10.846C7.07106 10.9487 6.94506 11 6.79573 11C6.63706 11 6.50639 10.9487 6.40373 10.846C6.30106 10.7433 6.24973 10.6173 6.24973 10.468V6.828C6.24973 5.96 6.00706 5.32067 5.52173 4.91C5.04573 4.49 4.45306 4.28 3.74373 4.28C3.28639 4.28 2.87106 4.36867 2.49773 4.546C2.13373 4.72333 1.84439 4.966 1.62973 5.274C1.41506 5.582 1.30773 5.932 1.30773 6.324V10.468C1.30773 10.6267 1.25639 10.7573 1.15373 10.86C1.06039 10.9533 0.934393 11 0.775727 11ZM0.775727 7.878C0.607727 7.878 0.472393 7.82667 0.369727 7.724C0.276393 7.62133 0.229727 7.49067 0.229727 7.332V0.611999C0.229727 0.443999 0.276393 0.313333 0.369727 0.219999C0.472393 0.117333 0.607727 0.0659997 0.775727 0.0659997C0.934393 0.0659997 1.06039 0.117333 1.15373 0.219999C1.25639 0.313333 1.30773 0.443999 1.30773 0.611999V7.332C1.30773 7.49067 1.25639 7.62133 1.15373 7.724C1.06039 7.82667 0.934393 7.878 0.775727 7.878ZM13.1763 11.07C12.4203 11.07 11.7483 10.9067 11.1603 10.58C10.5817 10.244 10.1243 9.782 9.78834 9.194C9.46167 8.606 9.29834 7.934 9.29834 7.178C9.29834 6.41267 9.45234 5.74067 9.76034 5.162C10.0777 4.574 10.5117 4.112 11.0623 3.776C11.613 3.44 12.2477 3.272 12.9663 3.272C13.6757 3.272 14.2917 3.43533 14.8143 3.762C15.3463 4.07933 15.757 4.52267 16.0463 5.092C16.3357 5.66133 16.4803 6.31 16.4803 7.038C16.4803 7.18733 16.4337 7.30867 16.3403 7.402C16.247 7.486 16.1257 7.528 15.9763 7.528H10.3203C10.3763 8.032 10.5303 8.48 10.7823 8.872C11.0343 9.25467 11.3657 9.558 11.7763 9.782C12.187 9.99667 12.6537 10.104 13.1763 10.104C13.5123 10.104 13.8483 10.048 14.1843 9.936C14.5297 9.81467 14.805 9.66533 15.0103 9.488C15.113 9.404 15.2297 9.362 15.3603 9.362C15.491 9.35267 15.603 9.38533 15.6963 9.46C15.8177 9.572 15.8783 9.69333 15.8783 9.824C15.8877 9.95467 15.8363 10.0667 15.7243 10.16C15.4163 10.4213 15.0243 10.6407 14.5483 10.818C14.0723 10.986 13.615 11.07 13.1763 11.07ZM12.9663 4.238C12.2477 4.238 11.655 4.462 11.1883 4.91C10.7217 5.34867 10.4417 5.92267 10.3483 6.632H15.4723C15.3977 5.92267 15.1363 5.34867 14.6883 4.91C14.2497 4.462 13.6757 4.238 12.9663 4.238ZM21.4045 11.07C20.6858 11.07 20.0418 10.902 19.4725 10.566C18.9032 10.2207 18.4505 9.754 18.1145 9.166C17.7878 8.578 17.6245 7.91533 17.6245 7.178C17.6245 6.43133 17.7925 5.764 18.1285 5.176C18.4738 4.588 18.9405 4.126 19.5285 3.79C20.1165 3.44467 20.7792 3.272 21.5165 3.272C22.2538 3.272 22.9118 3.44467 23.4905 3.79C24.0785 4.126 24.5405 4.588 24.8765 5.176C25.2218 5.764 25.3992 6.43133 25.4085 7.178V10.468C25.4085 10.6267 25.3572 10.7573 25.2545 10.86C25.1518 10.9533 25.0212 11 24.8625 11C24.7038 11 24.5732 10.9533 24.4705 10.86C24.3678 10.7573 24.3165 10.6267 24.3165 10.468V9.614C23.9992 10.062 23.5885 10.4167 23.0845 10.678C22.5805 10.9393 22.0205 11.07 21.4045 11.07ZM21.5165 10.09C22.0578 10.09 22.5385 9.964 22.9585 9.712C23.3878 9.46 23.7238 9.11467 23.9665 8.676C24.2185 8.228 24.3445 7.72867 24.3445 7.178C24.3445 6.618 24.2185 6.11867 23.9665 5.68C23.7238 5.24133 23.3878 4.896 22.9585 4.644C22.5385 4.38267 22.0578 4.252 21.5165 4.252C20.9845 4.252 20.5038 4.38267 20.0745 4.644C19.6452 4.896 19.3045 5.24133 19.0525 5.68C18.8005 6.11867 18.6745 6.618 18.6745 7.178C18.6745 7.72867 18.8005 8.228 19.0525 8.676C19.3045 9.11467 19.6452 9.46 20.0745 9.712C20.5038 9.964 20.9845 10.09 21.5165 10.09ZM29.1571 11C28.5971 11 28.1351 10.776 27.7711 10.328C27.4071 9.87067 27.2251 9.28733 27.2251 8.578V0.598C27.2251 0.439333 27.2718 0.313333 27.3651 0.219999C27.4678 0.117333 27.5985 0.0659997 27.7571 0.0659997C27.9158 0.0659997 28.0418 0.117333 28.1351 0.219999C28.2378 0.313333 28.2891 0.439333 28.2891 0.598V8.578C28.2891 8.97933 28.3685 9.306 28.5271 9.558C28.6951 9.81 28.9051 9.936 29.1571 9.936H29.5071C29.6471 9.936 29.7591 9.98733 29.8431 10.09C29.9271 10.1833 29.9691 10.3093 29.9691 10.468C29.9691 10.6267 29.9085 10.7573 29.7871 10.86C29.6751 10.9533 29.5258 11 29.3391 11H29.1571ZM34.4523 11C33.9576 11 33.5143 10.8833 33.1223 10.65C32.7396 10.4167 32.4363 10.0993 32.2123 9.698C31.9883 9.28733 31.8763 8.82067 31.8763 8.298V4.56H30.9663C30.8263 4.56 30.7096 4.518 30.6163 4.434C30.523 4.34067 30.4763 4.22867 30.4763 4.098C30.4763 3.958 30.523 3.846 30.6163 3.762C30.7096 3.66867 30.8263 3.622 30.9663 3.622H31.8763V1.452C31.8763 1.29333 31.923 1.16267 32.0163 1.06C32.119 0.957333 32.2496 0.906 32.4083 0.906C32.567 0.906 32.6976 0.957333 32.8003 1.06C32.903 1.16267 32.9543 1.29333 32.9543 1.452V3.622H34.5363C34.6763 3.622 34.793 3.66867 34.8863 3.762C34.9796 3.846 35.0263 3.958 35.0263 4.098C35.0263 4.22867 34.9796 4.34067 34.8863 4.434C34.793 4.518 34.6763 4.56 34.5363 4.56H32.9543V8.298C32.9543 8.774 33.0943 9.166 33.3743 9.474C33.6543 9.77267 34.0136 9.922 34.4523 9.922H34.8303C34.9796 9.922 35.101 9.97333 35.1943 10.076C35.2876 10.1787 35.3343 10.3093 35.3343 10.468C35.3343 10.6267 35.2783 10.7573 35.1663 10.86C35.0543 10.9533 34.9143 11 34.7463 11H34.4523ZM37.6351 11C37.4671 11 37.3318 10.9533 37.2291 10.86C37.1358 10.7573 37.0891 10.6267 37.0891 10.468V3.888C37.0891 3.72 37.1358 3.58933 37.2291 3.496C37.3318 3.39333 37.4671 3.342 37.6351 3.342C37.7938 3.342 37.9198 3.39333 38.0131 3.496C38.1158 3.58933 38.1671 3.72 38.1671 3.888V4.364C38.4658 4.01867 38.8344 3.748 39.2731 3.552C39.7211 3.356 40.2018 3.258 40.7151 3.258C41.3778 3.258 41.9704 3.398 42.4931 3.678C43.0158 3.94867 43.4264 4.35 43.7251 4.882C44.0331 5.414 44.1871 6.06267 44.1871 6.828V10.468C44.1871 10.6173 44.1358 10.7433 44.0331 10.846C43.9304 10.9487 43.8044 11 43.6551 11C43.4964 11 43.3658 10.9487 43.2631 10.846C43.1604 10.7433 43.1091 10.6173 43.1091 10.468V6.828C43.1091 5.96 42.8664 5.32067 42.3811 4.91C41.9051 4.49 41.3124 4.28 40.6031 4.28C40.1458 4.28 39.7304 4.36867 39.3571 4.546C38.9931 4.72333 38.7038 4.966 38.4891 5.274C38.2744 5.582 38.1671 5.932 38.1671 6.324V10.468C38.1671 10.6267 38.1158 10.7573 38.0131 10.86C37.9198 10.9533 37.7938 11 37.6351 11ZM37.6351 7.878C37.4671 7.878 37.3318 7.82667 37.2291 7.724C37.1358 7.62133 37.0891 7.49067 37.0891 7.332V0.611999C37.0891 0.443999 37.1358 0.313333 37.2291 0.219999C37.3318 0.117333 37.4671 0.0659997 37.6351 0.0659997C37.7938 0.0659997 37.9198 0.117333 38.0131 0.219999C38.1158 0.313333 38.1671 0.443999 38.1671 0.611999V7.332C38.1671 7.49067 38.1158 7.62133 38.0131 7.724C37.9198 7.82667 37.7938 7.878 37.6351 7.878ZM47.8797 14.332C47.805 14.332 47.721 14.3133 47.6277 14.276C47.3104 14.136 47.2217 13.912 47.3617 13.604L48.7617 10.538L48.7477 10.524L45.6257 4.056C45.5604 3.916 45.551 3.78533 45.5977 3.664C45.6444 3.54267 45.7377 3.44933 45.8777 3.384C46.1857 3.244 46.4097 3.32333 46.5497 3.622L49.2797 9.376L51.8837 3.636C52.0237 3.33733 52.2477 3.25333 52.5557 3.384C52.873 3.51467 52.9617 3.734 52.8217 4.042L48.2857 14.01C48.1924 14.2247 48.057 14.332 47.8797 14.332ZM58.8672 11C58.5125 11 58.3352 10.8227 58.3352 10.468V3.874C58.3352 3.51933 58.5125 3.342 58.8672 3.342C59.2219 3.342 59.3992 3.51933 59.3992 3.874V4.476C59.6792 4.10267 60.0245 3.80867 60.4352 3.594C60.8459 3.37 61.2985 3.258 61.7932 3.258C62.2225 3.258 62.5539 3.31867 62.7872 3.44C63.0205 3.56133 63.1092 3.73867 63.0532 3.972C63.0065 4.18667 62.8945 4.29867 62.7172 4.308C62.5492 4.308 62.3485 4.29867 62.1152 4.28C61.5925 4.23333 61.1259 4.28933 60.7152 4.448C60.3139 4.59733 59.9919 4.83067 59.7492 5.148C59.5159 5.46533 59.3992 5.84333 59.3992 6.282V10.468C59.3992 10.8227 59.2219 11 58.8672 11ZM67.5608 11.07C66.8421 11.07 66.1981 10.902 65.6288 10.566C65.0594 10.2207 64.6068 9.754 64.2708 9.166C63.9441 8.578 63.7808 7.91533 63.7808 7.178C63.7808 6.43133 63.9488 5.764 64.2848 5.176C64.6301 4.588 65.0968 4.126 65.6848 3.79C66.2728 3.44467 66.9354 3.272 67.6728 3.272C68.4101 3.272 69.0681 3.44467 69.6468 3.79C70.2348 4.126 70.6968 4.588 71.0328 5.176C71.3781 5.764 71.5554 6.43133 71.5648 7.178V10.468C71.5648 10.6267 71.5134 10.7573 71.4108 10.86C71.3081 10.9533 71.1774 11 71.0188 11C70.8601 11 70.7294 10.9533 70.6268 10.86C70.5241 10.7573 70.4728 10.6267 70.4728 10.468V9.614C70.1554 10.062 69.7448 10.4167 69.2408 10.678C68.7368 10.9393 68.1768 11.07 67.5608 11.07ZM67.6728 10.09C68.2141 10.09 68.6948 9.964 69.1148 9.712C69.5441 9.46 69.8801 9.11467 70.1228 8.676C70.3748 8.228 70.5008 7.72867 70.5008 7.178C70.5008 6.618 70.3748 6.11867 70.1228 5.68C69.8801 5.24133 69.5441 4.896 69.1148 4.644C68.6948 4.38267 68.2141 4.252 67.6728 4.252C67.1408 4.252 66.6601 4.38267 66.2308 4.644C65.8014 4.896 65.4608 5.24133 65.2088 5.68C64.9568 6.11867 64.8308 6.618 64.8308 7.178C64.8308 7.72867 64.9568 8.228 65.2088 8.676C65.4608 9.11467 65.8014 9.46 66.2308 9.712C66.6601 9.964 67.1408 10.09 67.6728 10.09ZM76.6574 11C76.1627 11 75.7194 10.8833 75.3274 10.65C74.9447 10.4167 74.6414 10.0993 74.4174 9.698C74.1934 9.28733 74.0814 8.82067 74.0814 8.298V4.56H73.1714C73.0314 4.56 72.9147 4.518 72.8214 4.434C72.728 4.34067 72.6814 4.22867 72.6814 4.098C72.6814 3.958 72.728 3.846 72.8214 3.762C72.9147 3.66867 73.0314 3.622 73.1714 3.622H74.0814V1.452C74.0814 1.29333 74.128 1.16267 74.2214 1.06C74.324 0.957333 74.4547 0.906 74.6134 0.906C74.772 0.906 74.9027 0.957333 75.0054 1.06C75.108 1.16267 75.1594 1.29333 75.1594 1.452V3.622H76.7414C76.8814 3.622 76.998 3.66867 77.0914 3.762C77.1847 3.846 77.2314 3.958 77.2314 4.098C77.2314 4.22867 77.1847 4.34067 77.0914 4.434C76.998 4.518 76.8814 4.56 76.7414 4.56H75.1594V8.298C75.1594 8.774 75.2994 9.166 75.5794 9.474C75.8594 9.77267 76.2187 9.922 76.6574 9.922H77.0354C77.1847 9.922 77.306 9.97333 77.3994 10.076C77.4927 10.1787 77.5394 10.3093 77.5394 10.468C77.5394 10.6267 77.4834 10.7573 77.3714 10.86C77.2594 10.9533 77.1194 11 76.9514 11H76.6574ZM80.0642 11C79.8962 11 79.7608 10.9533 79.6582 10.86C79.5648 10.7573 79.5182 10.622 79.5182 10.454V3.888C79.5182 3.72 79.5648 3.58933 79.6582 3.496C79.7608 3.39333 79.8962 3.342 80.0642 3.342C80.2228 3.342 80.3488 3.39333 80.4422 3.496C80.5448 3.58933 80.5962 3.72 80.5962 3.888V10.454C80.5962 10.622 80.5448 10.7573 80.4422 10.86C80.3488 10.9533 80.2228 11 80.0642 11ZM80.0502 1.886C79.8448 1.886 79.6675 1.81133 79.5182 1.662C79.3688 1.51267 79.2942 1.33067 79.2942 1.116C79.2942 0.882666 79.3688 0.700666 79.5182 0.569999C79.6768 0.429999 79.8588 0.359999 80.0642 0.359999C80.2602 0.359999 80.4328 0.429999 80.5822 0.569999C80.7408 0.700666 80.8202 0.882666 80.8202 1.116C80.8202 1.33067 80.7455 1.51267 80.5962 1.662C80.4468 1.81133 80.2648 1.886 80.0502 1.886ZM86.8271 11.07C86.0804 11.07 85.4131 10.902 84.8251 10.566C84.2371 10.23 83.7751 9.768 83.4391 9.18C83.1031 8.592 82.9351 7.92467 82.9351 7.178C82.9351 6.422 83.1031 5.75 83.4391 5.162C83.7751 4.574 84.2371 4.112 84.8251 3.776C85.4131 3.44 86.0804 3.272 86.8271 3.272C87.5737 3.272 88.2364 3.44 88.8151 3.776C89.4031 4.112 89.8651 4.574 90.2011 5.162C90.5371 5.75 90.7097 6.422 90.7191 7.178C90.7191 7.92467 90.5464 8.592 90.2011 9.18C89.8651 9.768 89.4031 10.23 88.8151 10.566C88.2364 10.902 87.5737 11.07 86.8271 11.07ZM86.8271 10.09C87.3684 10.09 87.8537 9.964 88.2831 9.712C88.7124 9.46 89.0484 9.11467 89.2911 8.676C89.5337 8.23733 89.6551 7.738 89.6551 7.178C89.6551 6.618 89.5337 6.11867 89.2911 5.68C89.0484 5.232 88.7124 4.882 88.2831 4.63C87.8537 4.378 87.3684 4.252 86.8271 4.252C86.2857 4.252 85.8004 4.378 85.3711 4.63C84.9417 4.882 84.6011 5.232 84.3491 5.68C84.1064 6.11867 83.9851 6.618 83.9851 7.178C83.9851 7.738 84.1064 8.23733 84.3491 8.676C84.6011 9.11467 84.9417 9.46 85.3711 9.712C85.8004 9.964 86.2857 10.09 86.8271 10.09ZM93.3617 11C93.1937 11 93.0583 10.9533 92.9557 10.86C92.8623 10.7573 92.8157 10.6267 92.8157 10.468V3.888C92.8157 3.72 92.8623 3.58933 92.9557 3.496C93.0583 3.39333 93.1937 3.342 93.3617 3.342C93.5203 3.342 93.6463 3.39333 93.7397 3.496C93.8423 3.58933 93.8937 3.72 93.8937 3.888V4.364C94.1923 4.01867 94.561 3.748 94.9997 3.552C95.4477 3.356 95.9283 3.258 96.4417 3.258C97.1043 3.258 97.697 3.398 98.2197 3.678C98.7423 3.94867 99.153 4.35 99.4517 4.882C99.7597 5.414 99.9137 6.06267 99.9137 6.828V10.468C99.9137 10.6173 99.8623 10.7433 99.7597 10.846C99.657 10.9487 99.531 11 99.3817 11C99.223 11 99.0923 10.9487 98.9897 10.846C98.887 10.7433 98.8357 10.6173 98.8357 10.468V6.828C98.8357 5.96 98.593 5.32067 98.1077 4.91C97.6317 4.49 97.039 4.28 96.3297 4.28C95.8723 4.28 95.457 4.36867 95.0837 4.546C94.7197 4.72333 94.4303 4.966 94.2157 5.274C94.001 5.582 93.8937 5.932 93.8937 6.324V10.468C93.8937 10.6267 93.8423 10.7573 93.7397 10.86C93.6463 10.9533 93.5203 11 93.3617 11Z" fill="#020202"/>
</svg>
