<svg width="48" height="39" viewBox="0 0 48 39" fill="none" xmlns="http://www.w3.org/2000/svg">
<path d="M45.5952 16.4773L45.536 16.1503L45.4049 16.4557C45.0778 17.2177 44.6623 17.9456 44.1627 18.6218C43.8965 18.9819 43.3887 19.0583 43.0285 18.792L42.969 18.8724L43.0285 18.7919C42.6682 18.5258 42.592 18.018 42.8582 17.6577C44.3643 15.6197 44.9715 13.0321 44.5236 10.5581C44.1119 8.28454 42.7827 6.48313 40.5642 5.16429C38.3491 3.84745 35.2474 3.01116 31.2822 2.65772C23.9528 2.00452 16.0004 3.23104 12.9235 3.78811C5.70215 5.09555 0.890996 12.0341 2.19843 19.2554C3.50584 26.4767 10.4443 31.2879 17.6656 29.9804C21.0869 29.361 23.5634 27.7586 26.1668 26.0742L26.1729 26.0702C29.1813 24.1238 32.2784 22.1205 37.1129 21.2453C37.3945 21.1943 37.6763 21.1295 37.951 21.0528L37.9241 20.9565L37.951 21.0528C38.3819 20.9324 38.8298 21.1843 38.9503 21.6155C39.0708 22.0469 38.8189 22.4943 38.3875 22.6148C38.0645 22.705 37.7329 22.7812 37.4018 22.8411C32.8853 23.6589 29.9152 25.5806 27.0571 27.4299L27.054 27.4319C24.289 29.221 21.6932 30.8994 17.9546 31.5763C12.4089 32.5804 7.01194 30.3673 3.68797 26.272L3.51326 26.359C5.18561 33.1105 11.8619 37.5034 18.8002 36.2472C22.2215 35.6278 24.698 34.0254 27.3014 32.341L27.3075 32.337C30.3159 30.3905 33.413 28.3873 38.2475 27.512C43.2372 26.6086 46.5615 21.8145 45.6581 16.8247L45.5952 16.4773ZM31.4261 1.04211C35.3367 1.39066 38.5232 2.21919 40.902 3.49959C43.842 5.08208 45.5927 7.35941 46.1195 10.2691L47.2541 16.5358C48.3168 22.4052 44.406 28.0453 38.5365 29.108C34.0199 29.9257 31.0499 31.8474 28.1917 33.6967L28.1886 33.6988C25.4236 35.4878 22.8279 37.1663 19.0892 37.8432C10.988 39.3099 3.20376 33.9123 1.73702 25.811L0.60243 19.5443C-0.8643 11.4431 4.53333 3.65877 12.6345 2.19204C15.7801 1.62254 23.9037 0.371633 31.4261 1.04211Z" fill="#020202" stroke="#F5FAFF" stroke-width="0.2"/>
</svg>
